<?xml version="1.0" encoding="UTF-8"?>
<svg id="Layer_2" data-name="Layer 2" xmlns="http://www.w3.org/2000/svg" viewBox="0 0 436.06 179.3">
  <defs>
    <style>
      .cls-1 {
        fill: #666;
      }

      .cls-2 {
        fill: #333;
      }
    </style>
  </defs>
  <g id="Layer_1-2" data-name="Layer 1">
    <g>
      <path class="cls-1" d="M83.91,50.05c3.15-3.15,8.25-3.15,11.39,0l15.78,15.78,23.78-23.78L95.08,2.27c-3.02-3.02-7.93-3.02-10.95,0l-39.78,39.78,23.78,23.78,15.78-15.78Z"/>
      <path class="cls-1" d="M83.91,129.26c3.15,3.15,8.25,3.15,11.39,0l15.78-15.78,23.78,23.78-39.78,39.78c-3.02,3.02-7.93,3.02-10.95,0l-39.78-39.78,23.78-23.78,15.78,15.78Z"/>
      <path class="cls-1" d="M50.05,95.3c-3.15-3.15-3.15-8.25,0-11.39l15.78-15.78-23.78-23.78L2.27,84.13c-3.02,3.02-3.02,7.93,0,10.95l39.78,39.78,23.78-23.78-15.78-15.78Z"/>
      <path class="cls-2" d="M176.94,84.13l-39.78-39.78-23.78,23.78,15.78,15.78c3.15,3.15,3.15,8.25,0,11.39l-15.78,15.78,23.78,23.78,39.78-39.78c3.02-3.02,3.02-7.93,0-10.95Z"/>
      <rect class="cls-2" x="62.95" y="62.69" width="53.31" height="53.31" rx="4.46" ry="4.46" transform="translate(89.42 -37.19) rotate(45)"/>
    </g>
    <g>
      <path class="cls-2" d="M202.04,112.46v-40.04h-7.27v-7.99h23.62v7.99h-7.27v40.04h-9.07Z"/>
      <path class="cls-2" d="M223.42,112.46v-48.03h9.07v48.03h-9.07Z"/>
      <path class="cls-2" d="M244.8,112.46v-40.04h-7.27v-7.99h23.62v7.99h-7.27v40.04h-9.07Z"/>
      <path class="cls-2" d="M281.38,112.46l-1.44-8.86h-8.93l-1.44,8.86h-9.36l10.01-48.03h10.44l10.08,48.03h-9.36ZM275.48,74.58l-3.46,21.03h6.91l-3.46-21.03Z"/>
      <path class="cls-2" d="M313.28,112.46l-9.72-25.42v25.42h-9.07v-48.03h9.07l9.22,24.48v-24.48h9.07v48.03h-8.57Z"/>
    </g>
    <g>
      <path class="cls-1" d="M344.62,112.46v-48.03h12.75v48.03h-12.75Z"/>
      <path class="cls-1" d="M393.37,112.46v-23.11l-6.77,23.11h-3.96l-6.62-23.11v23.11h-12.75v-48.03h15.77l5.54,19.3,5.83-19.3h15.48v48.03h-12.53Z"/>
      <path class="cls-1" d="M411.87,112.46v-48.03h24.19v11.09h-11.45v7.06h10.95v11.09h-10.95v7.7h11.45v11.09h-24.19Z"/>
    </g>
  </g>
</svg>