<?xml version="1.0" encoding="UTF-8"?>
<svg id="Layer_2" data-name="Layer 2" xmlns="http://www.w3.org/2000/svg" viewBox="0 0 179.21 179.3">
  <defs>
    <style>
      .cls-1 {
        fill: #666;
      }

      .cls-2 {
        fill: #333;
      }
    </style>
  </defs>
  <g id="Layer_1-2" data-name="Layer 1">
    <g>
      <path class="cls-1" d="M83.91,50.05c3.15-3.15,8.25-3.15,11.39,0l15.78,15.78,23.78-23.78L95.08,2.27c-3.02-3.02-7.93-3.02-10.95,0l-39.78,39.78,23.78,23.78,15.78-15.78Z"/>
      <path class="cls-1" d="M83.91,129.26c3.15,3.15,8.25,3.15,11.39,0l15.78-15.78,23.78,23.78-39.78,39.78c-3.02,3.02-7.93,3.02-10.95,0l-39.78-39.78,23.78-23.78,15.78,15.78Z"/>
      <path class="cls-1" d="M50.05,95.3c-3.15-3.15-3.15-8.25,0-11.39l15.78-15.78-23.78-23.78L2.27,84.13c-3.02,3.02-3.02,7.93,0,10.95l39.78,39.78,23.78-23.78-15.78-15.78Z"/>
      <path class="cls-2" d="M176.94,84.13l-39.78-39.78-23.78,23.78,15.78,15.78c3.15,3.15,3.15,8.25,0,11.39l-15.78,15.78,23.78,23.78,39.78-39.78c3.02-3.02,3.02-7.93,0-10.95Z"/>
      <rect class="cls-2" x="62.95" y="62.69" width="53.31" height="53.31" rx="4.46" ry="4.46" transform="translate(89.42 -37.19) rotate(45)"/>
    </g>
  </g>
</svg>